<mxfile host="Electron" agent="Mozilla/5.0 (Windows NT 10.0; Win64; x64) AppleWebKit/537.36 (KHTML, like Gecko) draw.io/26.0.9 Chrome/128.0.6613.186 Electron/32.2.5 Safari/537.36" version="26.0.9">
  <diagram id="C5RBs43oDa-KdzZeNtuy" name="Page-1">
    <mxGraphModel dx="1059" dy="743" grid="0" gridSize="10" guides="1" tooltips="1" connect="1" arrows="0" fold="1" page="1" pageScale="1" pageWidth="1169" pageHeight="827" background="#A5E4E9" math="0" shadow="1">
      <root>
        <object label="" id="WIyWlLk6GJQsqaUBKTNV-0">
          <mxCell />
        </object>
        <mxCell id="WIyWlLk6GJQsqaUBKTNV-1" parent="WIyWlLk6GJQsqaUBKTNV-0" />
        <mxCell id="yuQsAKVHhCq-FfcVtZyC-45" value="recipe" style="shape=table;startSize=41;container=1;collapsible=1;childLayout=tableLayout;fixedRows=1;rowLines=0;fontStyle=1;align=center;resizeLast=1;html=1;labelBackgroundColor=none;rounded=1;" vertex="1" parent="WIyWlLk6GJQsqaUBKTNV-1">
          <mxGeometry x="79" y="479.05" width="180" height="311" as="geometry" />
        </mxCell>
        <mxCell id="yuQsAKVHhCq-FfcVtZyC-46" value="" style="shape=tableRow;horizontal=0;startSize=0;swimlaneHead=0;swimlaneBody=0;fillColor=none;collapsible=0;dropTarget=0;points=[[0,0.5],[1,0.5]];portConstraint=eastwest;top=0;left=0;right=0;bottom=1;labelBackgroundColor=none;rounded=1;" vertex="1" parent="yuQsAKVHhCq-FfcVtZyC-45">
          <mxGeometry y="41" width="180" height="60" as="geometry" />
        </mxCell>
        <mxCell id="yuQsAKVHhCq-FfcVtZyC-47" value="PK" style="shape=partialRectangle;connectable=0;fillColor=none;top=0;left=0;bottom=0;right=0;fontStyle=1;overflow=hidden;whiteSpace=wrap;html=1;labelBackgroundColor=none;rounded=1;" vertex="1" parent="yuQsAKVHhCq-FfcVtZyC-46">
          <mxGeometry width="30" height="60" as="geometry">
            <mxRectangle width="30" height="60" as="alternateBounds" />
          </mxGeometry>
        </mxCell>
        <mxCell id="yuQsAKVHhCq-FfcVtZyC-48" value="recipe_Id" style="shape=partialRectangle;connectable=0;fillColor=none;top=0;left=0;bottom=0;right=0;align=left;spacingLeft=6;fontStyle=5;overflow=hidden;whiteSpace=wrap;html=1;labelBackgroundColor=none;rounded=1;" vertex="1" parent="yuQsAKVHhCq-FfcVtZyC-46">
          <mxGeometry x="30" width="150" height="60" as="geometry">
            <mxRectangle width="150" height="60" as="alternateBounds" />
          </mxGeometry>
        </mxCell>
        <mxCell id="yuQsAKVHhCq-FfcVtZyC-49" value="" style="shape=tableRow;horizontal=0;startSize=0;swimlaneHead=0;swimlaneBody=0;fillColor=none;collapsible=0;dropTarget=0;points=[[0,0.5],[1,0.5]];portConstraint=eastwest;top=0;left=0;right=0;bottom=0;labelBackgroundColor=none;rounded=1;" vertex="1" parent="yuQsAKVHhCq-FfcVtZyC-45">
          <mxGeometry y="101" width="180" height="30" as="geometry" />
        </mxCell>
        <mxCell id="yuQsAKVHhCq-FfcVtZyC-50" value="" style="shape=partialRectangle;connectable=0;fillColor=none;top=0;left=0;bottom=0;right=0;editable=1;overflow=hidden;whiteSpace=wrap;html=1;labelBackgroundColor=none;rounded=1;" vertex="1" parent="yuQsAKVHhCq-FfcVtZyC-49">
          <mxGeometry width="30" height="30" as="geometry">
            <mxRectangle width="30" height="30" as="alternateBounds" />
          </mxGeometry>
        </mxCell>
        <mxCell id="yuQsAKVHhCq-FfcVtZyC-51" value="recipe_name" style="shape=partialRectangle;connectable=0;fillColor=none;top=0;left=0;bottom=0;right=0;align=left;spacingLeft=6;overflow=hidden;whiteSpace=wrap;html=1;labelBackgroundColor=none;rounded=1;" vertex="1" parent="yuQsAKVHhCq-FfcVtZyC-49">
          <mxGeometry x="30" width="150" height="30" as="geometry">
            <mxRectangle width="150" height="30" as="alternateBounds" />
          </mxGeometry>
        </mxCell>
        <mxCell id="yuQsAKVHhCq-FfcVtZyC-52" value="" style="shape=tableRow;horizontal=0;startSize=0;swimlaneHead=0;swimlaneBody=0;fillColor=none;collapsible=0;dropTarget=0;points=[[0,0.5],[1,0.5]];portConstraint=eastwest;top=0;left=0;right=0;bottom=0;labelBackgroundColor=none;rounded=1;" vertex="1" parent="yuQsAKVHhCq-FfcVtZyC-45">
          <mxGeometry y="131" width="180" height="30" as="geometry" />
        </mxCell>
        <mxCell id="yuQsAKVHhCq-FfcVtZyC-53" value="" style="shape=partialRectangle;connectable=0;fillColor=none;top=0;left=0;bottom=0;right=0;editable=1;overflow=hidden;whiteSpace=wrap;html=1;labelBackgroundColor=none;rounded=1;" vertex="1" parent="yuQsAKVHhCq-FfcVtZyC-52">
          <mxGeometry width="30" height="30" as="geometry">
            <mxRectangle width="30" height="30" as="alternateBounds" />
          </mxGeometry>
        </mxCell>
        <mxCell id="yuQsAKVHhCq-FfcVtZyC-54" value="recipe_name" style="shape=partialRectangle;connectable=0;fillColor=none;top=0;left=0;bottom=0;right=0;align=left;spacingLeft=6;overflow=hidden;whiteSpace=wrap;html=1;labelBackgroundColor=none;rounded=1;" vertex="1" parent="yuQsAKVHhCq-FfcVtZyC-52">
          <mxGeometry x="30" width="150" height="30" as="geometry">
            <mxRectangle width="150" height="30" as="alternateBounds" />
          </mxGeometry>
        </mxCell>
        <mxCell id="yuQsAKVHhCq-FfcVtZyC-55" value="" style="shape=tableRow;horizontal=0;startSize=0;swimlaneHead=0;swimlaneBody=0;fillColor=none;collapsible=0;dropTarget=0;points=[[0,0.5],[1,0.5]];portConstraint=eastwest;top=0;left=0;right=0;bottom=0;labelBackgroundColor=none;rounded=1;" vertex="1" parent="yuQsAKVHhCq-FfcVtZyC-45">
          <mxGeometry y="161" width="180" height="30" as="geometry" />
        </mxCell>
        <mxCell id="yuQsAKVHhCq-FfcVtZyC-56" value="" style="shape=partialRectangle;connectable=0;fillColor=none;top=0;left=0;bottom=0;right=0;editable=1;overflow=hidden;whiteSpace=wrap;html=1;labelBackgroundColor=none;rounded=1;" vertex="1" parent="yuQsAKVHhCq-FfcVtZyC-55">
          <mxGeometry width="30" height="30" as="geometry">
            <mxRectangle width="30" height="30" as="alternateBounds" />
          </mxGeometry>
        </mxCell>
        <mxCell id="yuQsAKVHhCq-FfcVtZyC-57" value="notes" style="shape=partialRectangle;connectable=0;fillColor=none;top=0;left=0;bottom=0;right=0;align=left;spacingLeft=6;overflow=hidden;whiteSpace=wrap;html=1;labelBackgroundColor=none;rounded=1;" vertex="1" parent="yuQsAKVHhCq-FfcVtZyC-55">
          <mxGeometry x="30" width="150" height="30" as="geometry">
            <mxRectangle width="150" height="30" as="alternateBounds" />
          </mxGeometry>
        </mxCell>
        <mxCell id="yuQsAKVHhCq-FfcVtZyC-58" style="shape=tableRow;horizontal=0;startSize=0;swimlaneHead=0;swimlaneBody=0;fillColor=none;collapsible=0;dropTarget=0;points=[[0,0.5],[1,0.5]];portConstraint=eastwest;top=0;left=0;right=0;bottom=0;labelBackgroundColor=none;rounded=1;" vertex="1" parent="yuQsAKVHhCq-FfcVtZyC-45">
          <mxGeometry y="191" width="180" height="30" as="geometry" />
        </mxCell>
        <mxCell id="yuQsAKVHhCq-FfcVtZyC-59" style="shape=partialRectangle;connectable=0;fillColor=none;top=0;left=0;bottom=0;right=0;editable=1;overflow=hidden;whiteSpace=wrap;html=1;labelBackgroundColor=none;rounded=1;" vertex="1" parent="yuQsAKVHhCq-FfcVtZyC-58">
          <mxGeometry width="30" height="30" as="geometry">
            <mxRectangle width="30" height="30" as="alternateBounds" />
          </mxGeometry>
        </mxCell>
        <mxCell id="yuQsAKVHhCq-FfcVtZyC-60" value="num_servings" style="shape=partialRectangle;connectable=0;fillColor=none;top=0;left=0;bottom=0;right=0;align=left;spacingLeft=6;overflow=hidden;whiteSpace=wrap;html=1;labelBackgroundColor=none;rounded=1;" vertex="1" parent="yuQsAKVHhCq-FfcVtZyC-58">
          <mxGeometry x="30" width="150" height="30" as="geometry">
            <mxRectangle width="150" height="30" as="alternateBounds" />
          </mxGeometry>
        </mxCell>
        <mxCell id="yuQsAKVHhCq-FfcVtZyC-61" style="shape=tableRow;horizontal=0;startSize=0;swimlaneHead=0;swimlaneBody=0;fillColor=none;collapsible=0;dropTarget=0;points=[[0,0.5],[1,0.5]];portConstraint=eastwest;top=0;left=0;right=0;bottom=0;labelBackgroundColor=none;rounded=1;" vertex="1" parent="yuQsAKVHhCq-FfcVtZyC-45">
          <mxGeometry y="221" width="180" height="30" as="geometry" />
        </mxCell>
        <mxCell id="yuQsAKVHhCq-FfcVtZyC-62" style="shape=partialRectangle;connectable=0;fillColor=none;top=0;left=0;bottom=0;right=0;editable=1;overflow=hidden;whiteSpace=wrap;html=1;labelBackgroundColor=none;rounded=1;" vertex="1" parent="yuQsAKVHhCq-FfcVtZyC-61">
          <mxGeometry width="30" height="30" as="geometry">
            <mxRectangle width="30" height="30" as="alternateBounds" />
          </mxGeometry>
        </mxCell>
        <mxCell id="yuQsAKVHhCq-FfcVtZyC-63" value="prep_time" style="shape=partialRectangle;connectable=0;fillColor=none;top=0;left=0;bottom=0;right=0;align=left;spacingLeft=6;overflow=hidden;whiteSpace=wrap;html=1;labelBackgroundColor=none;rounded=1;" vertex="1" parent="yuQsAKVHhCq-FfcVtZyC-61">
          <mxGeometry x="30" width="150" height="30" as="geometry">
            <mxRectangle width="150" height="30" as="alternateBounds" />
          </mxGeometry>
        </mxCell>
        <mxCell id="yuQsAKVHhCq-FfcVtZyC-64" style="shape=tableRow;horizontal=0;startSize=0;swimlaneHead=0;swimlaneBody=0;fillColor=none;collapsible=0;dropTarget=0;points=[[0,0.5],[1,0.5]];portConstraint=eastwest;top=0;left=0;right=0;bottom=0;labelBackgroundColor=none;rounded=1;" vertex="1" parent="yuQsAKVHhCq-FfcVtZyC-45">
          <mxGeometry y="251" width="180" height="30" as="geometry" />
        </mxCell>
        <mxCell id="yuQsAKVHhCq-FfcVtZyC-65" style="shape=partialRectangle;connectable=0;fillColor=none;top=0;left=0;bottom=0;right=0;editable=1;overflow=hidden;whiteSpace=wrap;html=1;labelBackgroundColor=none;rounded=1;" vertex="1" parent="yuQsAKVHhCq-FfcVtZyC-64">
          <mxGeometry width="30" height="30" as="geometry">
            <mxRectangle width="30" height="30" as="alternateBounds" />
          </mxGeometry>
        </mxCell>
        <mxCell id="yuQsAKVHhCq-FfcVtZyC-66" value="cook_time" style="shape=partialRectangle;connectable=0;fillColor=none;top=0;left=0;bottom=0;right=0;align=left;spacingLeft=6;overflow=hidden;whiteSpace=wrap;html=1;labelBackgroundColor=none;rounded=1;" vertex="1" parent="yuQsAKVHhCq-FfcVtZyC-64">
          <mxGeometry x="30" width="150" height="30" as="geometry">
            <mxRectangle width="150" height="30" as="alternateBounds" />
          </mxGeometry>
        </mxCell>
        <mxCell id="yuQsAKVHhCq-FfcVtZyC-67" style="shape=tableRow;horizontal=0;startSize=0;swimlaneHead=0;swimlaneBody=0;fillColor=none;collapsible=0;dropTarget=0;points=[[0,0.5],[1,0.5]];portConstraint=eastwest;top=0;left=0;right=0;bottom=0;labelBackgroundColor=none;rounded=1;" vertex="1" parent="yuQsAKVHhCq-FfcVtZyC-45">
          <mxGeometry y="281" width="180" height="30" as="geometry" />
        </mxCell>
        <mxCell id="yuQsAKVHhCq-FfcVtZyC-68" style="shape=partialRectangle;connectable=0;fillColor=none;top=0;left=0;bottom=0;right=0;editable=1;overflow=hidden;whiteSpace=wrap;html=1;labelBackgroundColor=none;rounded=1;" vertex="1" parent="yuQsAKVHhCq-FfcVtZyC-67">
          <mxGeometry width="30" height="30" as="geometry">
            <mxRectangle width="30" height="30" as="alternateBounds" />
          </mxGeometry>
        </mxCell>
        <mxCell id="yuQsAKVHhCq-FfcVtZyC-69" value="created_at" style="shape=partialRectangle;connectable=0;fillColor=none;top=0;left=0;bottom=0;right=0;align=left;spacingLeft=6;overflow=hidden;whiteSpace=wrap;html=1;labelBackgroundColor=none;rounded=1;" vertex="1" parent="yuQsAKVHhCq-FfcVtZyC-67">
          <mxGeometry x="30" width="150" height="30" as="geometry">
            <mxRectangle width="150" height="30" as="alternateBounds" />
          </mxGeometry>
        </mxCell>
        <mxCell id="yuQsAKVHhCq-FfcVtZyC-70" value="category" style="shape=table;startSize=30;container=1;collapsible=1;childLayout=tableLayout;fixedRows=1;rowLines=0;fontStyle=1;align=center;resizeLast=1;html=1;labelBackgroundColor=none;rounded=1;" vertex="1" parent="WIyWlLk6GJQsqaUBKTNV-1">
          <mxGeometry x="79" y="78" width="180" height="90" as="geometry" />
        </mxCell>
        <mxCell id="yuQsAKVHhCq-FfcVtZyC-71" value="" style="shape=tableRow;horizontal=0;startSize=0;swimlaneHead=0;swimlaneBody=0;fillColor=none;collapsible=0;dropTarget=0;points=[[0,0.5],[1,0.5]];portConstraint=eastwest;top=0;left=0;right=0;bottom=1;labelBackgroundColor=none;rounded=1;" vertex="1" parent="yuQsAKVHhCq-FfcVtZyC-70">
          <mxGeometry y="30" width="180" height="30" as="geometry" />
        </mxCell>
        <mxCell id="yuQsAKVHhCq-FfcVtZyC-72" value="PK" style="shape=partialRectangle;connectable=0;fillColor=none;top=0;left=0;bottom=0;right=0;fontStyle=1;overflow=hidden;whiteSpace=wrap;html=1;labelBackgroundColor=none;rounded=1;" vertex="1" parent="yuQsAKVHhCq-FfcVtZyC-71">
          <mxGeometry width="30" height="30" as="geometry">
            <mxRectangle width="30" height="30" as="alternateBounds" />
          </mxGeometry>
        </mxCell>
        <mxCell id="yuQsAKVHhCq-FfcVtZyC-73" value="category_id" style="shape=partialRectangle;connectable=0;fillColor=none;top=0;left=0;bottom=0;right=0;align=left;spacingLeft=6;fontStyle=5;overflow=hidden;whiteSpace=wrap;html=1;labelBackgroundColor=none;rounded=1;" vertex="1" parent="yuQsAKVHhCq-FfcVtZyC-71">
          <mxGeometry x="30" width="150" height="30" as="geometry">
            <mxRectangle width="150" height="30" as="alternateBounds" />
          </mxGeometry>
        </mxCell>
        <mxCell id="yuQsAKVHhCq-FfcVtZyC-74" value="" style="shape=tableRow;horizontal=0;startSize=0;swimlaneHead=0;swimlaneBody=0;fillColor=none;collapsible=0;dropTarget=0;points=[[0,0.5],[1,0.5]];portConstraint=eastwest;top=0;left=0;right=0;bottom=0;labelBackgroundColor=none;rounded=1;" vertex="1" parent="yuQsAKVHhCq-FfcVtZyC-70">
          <mxGeometry y="60" width="180" height="30" as="geometry" />
        </mxCell>
        <mxCell id="yuQsAKVHhCq-FfcVtZyC-75" value="" style="shape=partialRectangle;connectable=0;fillColor=none;top=0;left=0;bottom=0;right=0;editable=1;overflow=hidden;whiteSpace=wrap;html=1;labelBackgroundColor=none;rounded=1;" vertex="1" parent="yuQsAKVHhCq-FfcVtZyC-74">
          <mxGeometry width="30" height="30" as="geometry">
            <mxRectangle width="30" height="30" as="alternateBounds" />
          </mxGeometry>
        </mxCell>
        <mxCell id="yuQsAKVHhCq-FfcVtZyC-76" value="category_name" style="shape=partialRectangle;connectable=0;fillColor=none;top=0;left=0;bottom=0;right=0;align=left;spacingLeft=6;overflow=hidden;whiteSpace=wrap;html=1;labelBackgroundColor=none;rounded=1;" vertex="1" parent="yuQsAKVHhCq-FfcVtZyC-74">
          <mxGeometry x="30" width="150" height="30" as="geometry">
            <mxRectangle width="150" height="30" as="alternateBounds" />
          </mxGeometry>
        </mxCell>
        <mxCell id="yuQsAKVHhCq-FfcVtZyC-83" value="recipe_category" style="shape=table;startSize=30;container=1;collapsible=1;childLayout=tableLayout;fixedRows=1;rowLines=0;fontStyle=1;align=center;resizeLast=1;html=1;whiteSpace=wrap;flipH=1;flipV=0;direction=east;rotatable=1;labelBackgroundColor=none;rounded=1;" vertex="1" parent="WIyWlLk6GJQsqaUBKTNV-1">
          <mxGeometry x="119" y="279" width="143" height="90" as="geometry" />
        </mxCell>
        <mxCell id="yuQsAKVHhCq-FfcVtZyC-84" value="" style="shape=tableRow;horizontal=0;startSize=0;swimlaneHead=0;swimlaneBody=0;fillColor=none;collapsible=0;dropTarget=0;points=[[0,0.5],[1,0.5]];portConstraint=eastwest;top=0;left=0;right=0;bottom=0;html=1;rotatable=1;labelBackgroundColor=none;rounded=1;" vertex="1" parent="yuQsAKVHhCq-FfcVtZyC-83">
          <mxGeometry y="30" width="143" height="30" as="geometry" />
        </mxCell>
        <mxCell id="yuQsAKVHhCq-FfcVtZyC-85" value="PK,FK1" style="shape=partialRectangle;connectable=0;fillColor=none;top=0;left=0;bottom=0;right=0;fontStyle=1;overflow=hidden;html=1;whiteSpace=wrap;rotatable=1;labelBackgroundColor=none;rounded=1;" vertex="1" parent="yuQsAKVHhCq-FfcVtZyC-84">
          <mxGeometry width="60" height="30" as="geometry">
            <mxRectangle width="60" height="30" as="alternateBounds" />
          </mxGeometry>
        </mxCell>
        <mxCell id="yuQsAKVHhCq-FfcVtZyC-86" value="recipe_id" style="shape=partialRectangle;connectable=0;fillColor=none;top=0;left=0;bottom=0;right=0;align=left;spacingLeft=6;fontStyle=5;overflow=hidden;html=1;whiteSpace=wrap;rotatable=1;labelBackgroundColor=none;rounded=1;" vertex="1" parent="yuQsAKVHhCq-FfcVtZyC-84">
          <mxGeometry x="60" width="83" height="30" as="geometry">
            <mxRectangle width="83" height="30" as="alternateBounds" />
          </mxGeometry>
        </mxCell>
        <mxCell id="yuQsAKVHhCq-FfcVtZyC-87" value="" style="shape=tableRow;horizontal=0;startSize=0;swimlaneHead=0;swimlaneBody=0;fillColor=none;collapsible=0;dropTarget=0;points=[[0,0.5],[1,0.5]];portConstraint=eastwest;top=0;left=0;right=0;bottom=1;html=1;rotatable=1;labelBackgroundColor=none;rounded=1;" vertex="1" parent="yuQsAKVHhCq-FfcVtZyC-83">
          <mxGeometry y="60" width="143" height="30" as="geometry" />
        </mxCell>
        <mxCell id="yuQsAKVHhCq-FfcVtZyC-88" value="PK,FK2" style="shape=partialRectangle;connectable=0;fillColor=none;top=0;left=0;bottom=0;right=0;fontStyle=1;overflow=hidden;html=1;whiteSpace=wrap;rotatable=1;labelBackgroundColor=none;rounded=1;" vertex="1" parent="yuQsAKVHhCq-FfcVtZyC-87">
          <mxGeometry width="60" height="30" as="geometry">
            <mxRectangle width="60" height="30" as="alternateBounds" />
          </mxGeometry>
        </mxCell>
        <mxCell id="yuQsAKVHhCq-FfcVtZyC-89" value="category_id" style="shape=partialRectangle;connectable=0;fillColor=none;top=0;left=0;bottom=0;right=0;align=left;spacingLeft=6;fontStyle=5;overflow=hidden;html=1;whiteSpace=wrap;rotatable=1;labelBackgroundColor=none;rounded=1;" vertex="1" parent="yuQsAKVHhCq-FfcVtZyC-87">
          <mxGeometry x="60" width="83" height="30" as="geometry">
            <mxRectangle width="83" height="30" as="alternateBounds" />
          </mxGeometry>
        </mxCell>
        <mxCell id="yuQsAKVHhCq-FfcVtZyC-97" value="" style="endArrow=none;dashed=1;html=1;rounded=1;entryX=1.025;entryY=0.166;entryDx=0;entryDy=0;entryPerimeter=0;labelBackgroundColor=none;fontColor=default;" edge="1" parent="WIyWlLk6GJQsqaUBKTNV-1" target="yuQsAKVHhCq-FfcVtZyC-83">
          <mxGeometry width="50" height="50" relative="1" as="geometry">
            <mxPoint x="40" y="294" as="sourcePoint" />
            <mxPoint x="187.2" y="196.91999999999996" as="targetPoint" />
          </mxGeometry>
        </mxCell>
        <mxCell id="yuQsAKVHhCq-FfcVtZyC-103" value="ingredient" style="shape=table;startSize=30;container=1;collapsible=1;childLayout=tableLayout;fixedRows=1;rowLines=0;fontStyle=1;align=center;resizeLast=1;html=1;labelBackgroundColor=none;rounded=1;" vertex="1" parent="WIyWlLk6GJQsqaUBKTNV-1">
          <mxGeometry x="360" y="78" width="180" height="240" as="geometry" />
        </mxCell>
        <mxCell id="yuQsAKVHhCq-FfcVtZyC-104" value="" style="shape=tableRow;horizontal=0;startSize=0;swimlaneHead=0;swimlaneBody=0;fillColor=none;collapsible=0;dropTarget=0;points=[[0,0.5],[1,0.5]];portConstraint=eastwest;top=0;left=0;right=0;bottom=1;labelBackgroundColor=none;rounded=1;" vertex="1" parent="yuQsAKVHhCq-FfcVtZyC-103">
          <mxGeometry y="30" width="180" height="30" as="geometry" />
        </mxCell>
        <mxCell id="yuQsAKVHhCq-FfcVtZyC-105" value="PK" style="shape=partialRectangle;connectable=0;fillColor=none;top=0;left=0;bottom=0;right=0;fontStyle=1;overflow=hidden;whiteSpace=wrap;html=1;labelBackgroundColor=none;rounded=1;" vertex="1" parent="yuQsAKVHhCq-FfcVtZyC-104">
          <mxGeometry width="30" height="30" as="geometry">
            <mxRectangle width="30" height="30" as="alternateBounds" />
          </mxGeometry>
        </mxCell>
        <mxCell id="yuQsAKVHhCq-FfcVtZyC-106" value="ingredient_id" style="shape=partialRectangle;connectable=0;fillColor=none;top=0;left=0;bottom=0;right=0;align=left;spacingLeft=6;fontStyle=5;overflow=hidden;whiteSpace=wrap;html=1;labelBackgroundColor=none;rounded=1;" vertex="1" parent="yuQsAKVHhCq-FfcVtZyC-104">
          <mxGeometry x="30" width="150" height="30" as="geometry">
            <mxRectangle width="150" height="30" as="alternateBounds" />
          </mxGeometry>
        </mxCell>
        <mxCell id="yuQsAKVHhCq-FfcVtZyC-107" value="" style="shape=tableRow;horizontal=0;startSize=0;swimlaneHead=0;swimlaneBody=0;fillColor=none;collapsible=0;dropTarget=0;points=[[0,0.5],[1,0.5]];portConstraint=eastwest;top=0;left=0;right=0;bottom=0;labelBackgroundColor=none;rounded=1;" vertex="1" parent="yuQsAKVHhCq-FfcVtZyC-103">
          <mxGeometry y="60" width="180" height="30" as="geometry" />
        </mxCell>
        <mxCell id="yuQsAKVHhCq-FfcVtZyC-108" value="FK" style="shape=partialRectangle;connectable=0;fillColor=none;top=0;left=0;bottom=0;right=0;editable=1;overflow=hidden;whiteSpace=wrap;html=1;labelBackgroundColor=none;rounded=1;" vertex="1" parent="yuQsAKVHhCq-FfcVtZyC-107">
          <mxGeometry width="30" height="30" as="geometry">
            <mxRectangle width="30" height="30" as="alternateBounds" />
          </mxGeometry>
        </mxCell>
        <mxCell id="yuQsAKVHhCq-FfcVtZyC-109" value="recipe_id" style="shape=partialRectangle;connectable=0;fillColor=none;top=0;left=0;bottom=0;right=0;align=left;spacingLeft=6;overflow=hidden;whiteSpace=wrap;html=1;labelBackgroundColor=none;rounded=1;" vertex="1" parent="yuQsAKVHhCq-FfcVtZyC-107">
          <mxGeometry x="30" width="150" height="30" as="geometry">
            <mxRectangle width="150" height="30" as="alternateBounds" />
          </mxGeometry>
        </mxCell>
        <mxCell id="yuQsAKVHhCq-FfcVtZyC-110" value="" style="shape=tableRow;horizontal=0;startSize=0;swimlaneHead=0;swimlaneBody=0;fillColor=none;collapsible=0;dropTarget=0;points=[[0,0.5],[1,0.5]];portConstraint=eastwest;top=0;left=0;right=0;bottom=0;labelBackgroundColor=none;rounded=1;" vertex="1" parent="yuQsAKVHhCq-FfcVtZyC-103">
          <mxGeometry y="90" width="180" height="30" as="geometry" />
        </mxCell>
        <mxCell id="yuQsAKVHhCq-FfcVtZyC-111" value="FK" style="shape=partialRectangle;connectable=0;fillColor=none;top=0;left=0;bottom=0;right=0;editable=1;overflow=hidden;whiteSpace=wrap;html=1;labelBackgroundColor=none;rounded=1;" vertex="1" parent="yuQsAKVHhCq-FfcVtZyC-110">
          <mxGeometry width="30" height="30" as="geometry">
            <mxRectangle width="30" height="30" as="alternateBounds" />
          </mxGeometry>
        </mxCell>
        <mxCell id="yuQsAKVHhCq-FfcVtZyC-112" value="unit_id" style="shape=partialRectangle;connectable=0;fillColor=none;top=0;left=0;bottom=0;right=0;align=left;spacingLeft=6;overflow=hidden;whiteSpace=wrap;html=1;labelBackgroundColor=none;rounded=1;" vertex="1" parent="yuQsAKVHhCq-FfcVtZyC-110">
          <mxGeometry x="30" width="150" height="30" as="geometry">
            <mxRectangle width="150" height="30" as="alternateBounds" />
          </mxGeometry>
        </mxCell>
        <mxCell id="yuQsAKVHhCq-FfcVtZyC-113" value="" style="shape=tableRow;horizontal=0;startSize=0;swimlaneHead=0;swimlaneBody=0;fillColor=none;collapsible=0;dropTarget=0;points=[[0,0.5],[1,0.5]];portConstraint=eastwest;top=0;left=0;right=0;bottom=0;labelBackgroundColor=none;rounded=1;" vertex="1" parent="yuQsAKVHhCq-FfcVtZyC-103">
          <mxGeometry y="120" width="180" height="30" as="geometry" />
        </mxCell>
        <mxCell id="yuQsAKVHhCq-FfcVtZyC-114" value="" style="shape=partialRectangle;connectable=0;fillColor=none;top=0;left=0;bottom=0;right=0;editable=1;overflow=hidden;whiteSpace=wrap;html=1;labelBackgroundColor=none;rounded=1;" vertex="1" parent="yuQsAKVHhCq-FfcVtZyC-113">
          <mxGeometry width="30" height="30" as="geometry">
            <mxRectangle width="30" height="30" as="alternateBounds" />
          </mxGeometry>
        </mxCell>
        <mxCell id="yuQsAKVHhCq-FfcVtZyC-115" value="ingredient_name" style="shape=partialRectangle;connectable=0;fillColor=none;top=0;left=0;bottom=0;right=0;align=left;spacingLeft=6;overflow=hidden;whiteSpace=wrap;html=1;labelBackgroundColor=none;rounded=1;" vertex="1" parent="yuQsAKVHhCq-FfcVtZyC-113">
          <mxGeometry x="30" width="150" height="30" as="geometry">
            <mxRectangle width="150" height="30" as="alternateBounds" />
          </mxGeometry>
        </mxCell>
        <mxCell id="yuQsAKVHhCq-FfcVtZyC-116" style="shape=tableRow;horizontal=0;startSize=0;swimlaneHead=0;swimlaneBody=0;fillColor=none;collapsible=0;dropTarget=0;points=[[0,0.5],[1,0.5]];portConstraint=eastwest;top=0;left=0;right=0;bottom=0;labelBackgroundColor=none;rounded=1;" vertex="1" parent="yuQsAKVHhCq-FfcVtZyC-103">
          <mxGeometry y="150" width="180" height="30" as="geometry" />
        </mxCell>
        <mxCell id="yuQsAKVHhCq-FfcVtZyC-117" style="shape=partialRectangle;connectable=0;fillColor=none;top=0;left=0;bottom=0;right=0;editable=1;overflow=hidden;whiteSpace=wrap;html=1;labelBackgroundColor=none;rounded=1;" vertex="1" parent="yuQsAKVHhCq-FfcVtZyC-116">
          <mxGeometry width="30" height="30" as="geometry">
            <mxRectangle width="30" height="30" as="alternateBounds" />
          </mxGeometry>
        </mxCell>
        <mxCell id="yuQsAKVHhCq-FfcVtZyC-118" value="instruction" style="shape=partialRectangle;connectable=0;fillColor=none;top=0;left=0;bottom=0;right=0;align=left;spacingLeft=6;overflow=hidden;whiteSpace=wrap;html=1;labelBackgroundColor=none;rounded=1;" vertex="1" parent="yuQsAKVHhCq-FfcVtZyC-116">
          <mxGeometry x="30" width="150" height="30" as="geometry">
            <mxRectangle width="150" height="30" as="alternateBounds" />
          </mxGeometry>
        </mxCell>
        <mxCell id="yuQsAKVHhCq-FfcVtZyC-119" style="shape=tableRow;horizontal=0;startSize=0;swimlaneHead=0;swimlaneBody=0;fillColor=none;collapsible=0;dropTarget=0;points=[[0,0.5],[1,0.5]];portConstraint=eastwest;top=0;left=0;right=0;bottom=0;labelBackgroundColor=none;rounded=1;" vertex="1" parent="yuQsAKVHhCq-FfcVtZyC-103">
          <mxGeometry y="180" width="180" height="30" as="geometry" />
        </mxCell>
        <mxCell id="yuQsAKVHhCq-FfcVtZyC-120" style="shape=partialRectangle;connectable=0;fillColor=none;top=0;left=0;bottom=0;right=0;editable=1;overflow=hidden;whiteSpace=wrap;html=1;labelBackgroundColor=none;rounded=1;" vertex="1" parent="yuQsAKVHhCq-FfcVtZyC-119">
          <mxGeometry width="30" height="30" as="geometry">
            <mxRectangle width="30" height="30" as="alternateBounds" />
          </mxGeometry>
        </mxCell>
        <mxCell id="yuQsAKVHhCq-FfcVtZyC-121" value="ingredient_order" style="shape=partialRectangle;connectable=0;fillColor=none;top=0;left=0;bottom=0;right=0;align=left;spacingLeft=6;overflow=hidden;whiteSpace=wrap;html=1;labelBackgroundColor=none;rounded=1;" vertex="1" parent="yuQsAKVHhCq-FfcVtZyC-119">
          <mxGeometry x="30" width="150" height="30" as="geometry">
            <mxRectangle width="150" height="30" as="alternateBounds" />
          </mxGeometry>
        </mxCell>
        <mxCell id="yuQsAKVHhCq-FfcVtZyC-122" style="shape=tableRow;horizontal=0;startSize=0;swimlaneHead=0;swimlaneBody=0;fillColor=none;collapsible=0;dropTarget=0;points=[[0,0.5],[1,0.5]];portConstraint=eastwest;top=0;left=0;right=0;bottom=0;labelBackgroundColor=none;rounded=1;" vertex="1" parent="yuQsAKVHhCq-FfcVtZyC-103">
          <mxGeometry y="210" width="180" height="30" as="geometry" />
        </mxCell>
        <mxCell id="yuQsAKVHhCq-FfcVtZyC-123" style="shape=partialRectangle;connectable=0;fillColor=none;top=0;left=0;bottom=0;right=0;editable=1;overflow=hidden;whiteSpace=wrap;html=1;labelBackgroundColor=none;rounded=1;" vertex="1" parent="yuQsAKVHhCq-FfcVtZyC-122">
          <mxGeometry width="30" height="30" as="geometry">
            <mxRectangle width="30" height="30" as="alternateBounds" />
          </mxGeometry>
        </mxCell>
        <mxCell id="yuQsAKVHhCq-FfcVtZyC-124" value="amount" style="shape=partialRectangle;connectable=0;fillColor=none;top=0;left=0;bottom=0;right=0;align=left;spacingLeft=6;overflow=hidden;whiteSpace=wrap;html=1;labelBackgroundColor=none;rounded=1;" vertex="1" parent="yuQsAKVHhCq-FfcVtZyC-122">
          <mxGeometry x="30" width="150" height="30" as="geometry">
            <mxRectangle width="150" height="30" as="alternateBounds" />
          </mxGeometry>
        </mxCell>
        <mxCell id="yuQsAKVHhCq-FfcVtZyC-125" value="strp" style="shape=table;startSize=30;container=1;collapsible=1;childLayout=tableLayout;fixedRows=1;rowLines=0;fontStyle=1;align=center;resizeLast=1;html=1;labelBackgroundColor=none;rounded=1;" vertex="1" parent="WIyWlLk6GJQsqaUBKTNV-1">
          <mxGeometry x="359" y="520.05" width="180" height="150" as="geometry" />
        </mxCell>
        <mxCell id="yuQsAKVHhCq-FfcVtZyC-126" value="" style="shape=tableRow;horizontal=0;startSize=0;swimlaneHead=0;swimlaneBody=0;fillColor=none;collapsible=0;dropTarget=0;points=[[0,0.5],[1,0.5]];portConstraint=eastwest;top=0;left=0;right=0;bottom=1;labelBackgroundColor=none;rounded=1;" vertex="1" parent="yuQsAKVHhCq-FfcVtZyC-125">
          <mxGeometry y="30" width="180" height="30" as="geometry" />
        </mxCell>
        <mxCell id="yuQsAKVHhCq-FfcVtZyC-127" value="PK" style="shape=partialRectangle;connectable=0;fillColor=none;top=0;left=0;bottom=0;right=0;fontStyle=1;overflow=hidden;whiteSpace=wrap;html=1;labelBackgroundColor=none;rounded=1;" vertex="1" parent="yuQsAKVHhCq-FfcVtZyC-126">
          <mxGeometry width="30" height="30" as="geometry">
            <mxRectangle width="30" height="30" as="alternateBounds" />
          </mxGeometry>
        </mxCell>
        <mxCell id="yuQsAKVHhCq-FfcVtZyC-128" value="step_id" style="shape=partialRectangle;connectable=0;fillColor=none;top=0;left=0;bottom=0;right=0;align=left;spacingLeft=6;fontStyle=5;overflow=hidden;whiteSpace=wrap;html=1;labelBackgroundColor=none;rounded=1;" vertex="1" parent="yuQsAKVHhCq-FfcVtZyC-126">
          <mxGeometry x="30" width="150" height="30" as="geometry">
            <mxRectangle width="150" height="30" as="alternateBounds" />
          </mxGeometry>
        </mxCell>
        <mxCell id="yuQsAKVHhCq-FfcVtZyC-129" value="" style="shape=tableRow;horizontal=0;startSize=0;swimlaneHead=0;swimlaneBody=0;fillColor=none;collapsible=0;dropTarget=0;points=[[0,0.5],[1,0.5]];portConstraint=eastwest;top=0;left=0;right=0;bottom=0;labelBackgroundColor=none;rounded=1;" vertex="1" parent="yuQsAKVHhCq-FfcVtZyC-125">
          <mxGeometry y="60" width="180" height="30" as="geometry" />
        </mxCell>
        <mxCell id="yuQsAKVHhCq-FfcVtZyC-130" value="" style="shape=partialRectangle;connectable=0;fillColor=none;top=0;left=0;bottom=0;right=0;editable=1;overflow=hidden;whiteSpace=wrap;html=1;labelBackgroundColor=none;rounded=1;" vertex="1" parent="yuQsAKVHhCq-FfcVtZyC-129">
          <mxGeometry width="30" height="30" as="geometry">
            <mxRectangle width="30" height="30" as="alternateBounds" />
          </mxGeometry>
        </mxCell>
        <mxCell id="yuQsAKVHhCq-FfcVtZyC-131" value="recipe_id" style="shape=partialRectangle;connectable=0;fillColor=none;top=0;left=0;bottom=0;right=0;align=left;spacingLeft=6;overflow=hidden;whiteSpace=wrap;html=1;labelBackgroundColor=none;rounded=1;" vertex="1" parent="yuQsAKVHhCq-FfcVtZyC-129">
          <mxGeometry x="30" width="150" height="30" as="geometry">
            <mxRectangle width="150" height="30" as="alternateBounds" />
          </mxGeometry>
        </mxCell>
        <mxCell id="yuQsAKVHhCq-FfcVtZyC-132" value="" style="shape=tableRow;horizontal=0;startSize=0;swimlaneHead=0;swimlaneBody=0;fillColor=none;collapsible=0;dropTarget=0;points=[[0,0.5],[1,0.5]];portConstraint=eastwest;top=0;left=0;right=0;bottom=0;labelBackgroundColor=none;rounded=1;" vertex="1" parent="yuQsAKVHhCq-FfcVtZyC-125">
          <mxGeometry y="90" width="180" height="30" as="geometry" />
        </mxCell>
        <mxCell id="yuQsAKVHhCq-FfcVtZyC-133" value="" style="shape=partialRectangle;connectable=0;fillColor=none;top=0;left=0;bottom=0;right=0;editable=1;overflow=hidden;whiteSpace=wrap;html=1;labelBackgroundColor=none;rounded=1;" vertex="1" parent="yuQsAKVHhCq-FfcVtZyC-132">
          <mxGeometry width="30" height="30" as="geometry">
            <mxRectangle width="30" height="30" as="alternateBounds" />
          </mxGeometry>
        </mxCell>
        <mxCell id="yuQsAKVHhCq-FfcVtZyC-134" value="step_order" style="shape=partialRectangle;connectable=0;fillColor=none;top=0;left=0;bottom=0;right=0;align=left;spacingLeft=6;overflow=hidden;whiteSpace=wrap;html=1;labelBackgroundColor=none;rounded=1;" vertex="1" parent="yuQsAKVHhCq-FfcVtZyC-132">
          <mxGeometry x="30" width="150" height="30" as="geometry">
            <mxRectangle width="150" height="30" as="alternateBounds" />
          </mxGeometry>
        </mxCell>
        <mxCell id="yuQsAKVHhCq-FfcVtZyC-135" value="" style="shape=tableRow;horizontal=0;startSize=0;swimlaneHead=0;swimlaneBody=0;fillColor=none;collapsible=0;dropTarget=0;points=[[0,0.5],[1,0.5]];portConstraint=eastwest;top=0;left=0;right=0;bottom=0;labelBackgroundColor=none;rounded=1;" vertex="1" parent="yuQsAKVHhCq-FfcVtZyC-125">
          <mxGeometry y="120" width="180" height="30" as="geometry" />
        </mxCell>
        <mxCell id="yuQsAKVHhCq-FfcVtZyC-136" value="" style="shape=partialRectangle;connectable=0;fillColor=none;top=0;left=0;bottom=0;right=0;editable=1;overflow=hidden;whiteSpace=wrap;html=1;labelBackgroundColor=none;rounded=1;" vertex="1" parent="yuQsAKVHhCq-FfcVtZyC-135">
          <mxGeometry width="30" height="30" as="geometry">
            <mxRectangle width="30" height="30" as="alternateBounds" />
          </mxGeometry>
        </mxCell>
        <mxCell id="yuQsAKVHhCq-FfcVtZyC-137" value="step_text" style="shape=partialRectangle;connectable=0;fillColor=none;top=0;left=0;bottom=0;right=0;align=left;spacingLeft=6;overflow=hidden;whiteSpace=wrap;html=1;labelBackgroundColor=none;rounded=1;" vertex="1" parent="yuQsAKVHhCq-FfcVtZyC-135">
          <mxGeometry x="30" width="150" height="30" as="geometry">
            <mxRectangle width="150" height="30" as="alternateBounds" />
          </mxGeometry>
        </mxCell>
        <mxCell id="yuQsAKVHhCq-FfcVtZyC-138" value="unit" style="shape=table;startSize=30;container=1;collapsible=1;childLayout=tableLayout;fixedRows=1;rowLines=0;fontStyle=1;align=center;resizeLast=1;html=1;labelBackgroundColor=none;rounded=1;" vertex="1" parent="WIyWlLk6GJQsqaUBKTNV-1">
          <mxGeometry x="680" y="78" width="180" height="120" as="geometry" />
        </mxCell>
        <mxCell id="yuQsAKVHhCq-FfcVtZyC-139" value="" style="shape=tableRow;horizontal=0;startSize=0;swimlaneHead=0;swimlaneBody=0;fillColor=none;collapsible=0;dropTarget=0;points=[[0,0.5],[1,0.5]];portConstraint=eastwest;top=0;left=0;right=0;bottom=1;labelBackgroundColor=none;rounded=1;" vertex="1" parent="yuQsAKVHhCq-FfcVtZyC-138">
          <mxGeometry y="30" width="180" height="30" as="geometry" />
        </mxCell>
        <mxCell id="yuQsAKVHhCq-FfcVtZyC-140" value="PK" style="shape=partialRectangle;connectable=0;fillColor=none;top=0;left=0;bottom=0;right=0;fontStyle=1;overflow=hidden;whiteSpace=wrap;html=1;labelBackgroundColor=none;rounded=1;" vertex="1" parent="yuQsAKVHhCq-FfcVtZyC-139">
          <mxGeometry width="30" height="30" as="geometry">
            <mxRectangle width="30" height="30" as="alternateBounds" />
          </mxGeometry>
        </mxCell>
        <mxCell id="yuQsAKVHhCq-FfcVtZyC-141" value="unit_id" style="shape=partialRectangle;connectable=0;fillColor=none;top=0;left=0;bottom=0;right=0;align=left;spacingLeft=6;fontStyle=5;overflow=hidden;whiteSpace=wrap;html=1;labelBackgroundColor=none;rounded=1;" vertex="1" parent="yuQsAKVHhCq-FfcVtZyC-139">
          <mxGeometry x="30" width="150" height="30" as="geometry">
            <mxRectangle width="150" height="30" as="alternateBounds" />
          </mxGeometry>
        </mxCell>
        <mxCell id="yuQsAKVHhCq-FfcVtZyC-142" value="" style="shape=tableRow;horizontal=0;startSize=0;swimlaneHead=0;swimlaneBody=0;fillColor=none;collapsible=0;dropTarget=0;points=[[0,0.5],[1,0.5]];portConstraint=eastwest;top=0;left=0;right=0;bottom=0;labelBackgroundColor=none;rounded=1;" vertex="1" parent="yuQsAKVHhCq-FfcVtZyC-138">
          <mxGeometry y="60" width="180" height="30" as="geometry" />
        </mxCell>
        <mxCell id="yuQsAKVHhCq-FfcVtZyC-143" value="" style="shape=partialRectangle;connectable=0;fillColor=none;top=0;left=0;bottom=0;right=0;editable=1;overflow=hidden;whiteSpace=wrap;html=1;labelBackgroundColor=none;rounded=1;" vertex="1" parent="yuQsAKVHhCq-FfcVtZyC-142">
          <mxGeometry width="30" height="30" as="geometry">
            <mxRectangle width="30" height="30" as="alternateBounds" />
          </mxGeometry>
        </mxCell>
        <mxCell id="yuQsAKVHhCq-FfcVtZyC-144" value="unit_name_singular" style="shape=partialRectangle;connectable=0;fillColor=none;top=0;left=0;bottom=0;right=0;align=left;spacingLeft=6;overflow=hidden;whiteSpace=wrap;html=1;labelBackgroundColor=none;rounded=1;" vertex="1" parent="yuQsAKVHhCq-FfcVtZyC-142">
          <mxGeometry x="30" width="150" height="30" as="geometry">
            <mxRectangle width="150" height="30" as="alternateBounds" />
          </mxGeometry>
        </mxCell>
        <mxCell id="yuQsAKVHhCq-FfcVtZyC-145" value="" style="shape=tableRow;horizontal=0;startSize=0;swimlaneHead=0;swimlaneBody=0;fillColor=none;collapsible=0;dropTarget=0;points=[[0,0.5],[1,0.5]];portConstraint=eastwest;top=0;left=0;right=0;bottom=0;labelBackgroundColor=none;rounded=1;" vertex="1" parent="yuQsAKVHhCq-FfcVtZyC-138">
          <mxGeometry y="90" width="180" height="30" as="geometry" />
        </mxCell>
        <mxCell id="yuQsAKVHhCq-FfcVtZyC-146" value="" style="shape=partialRectangle;connectable=0;fillColor=none;top=0;left=0;bottom=0;right=0;editable=1;overflow=hidden;whiteSpace=wrap;html=1;labelBackgroundColor=none;rounded=1;" vertex="1" parent="yuQsAKVHhCq-FfcVtZyC-145">
          <mxGeometry width="30" height="30" as="geometry">
            <mxRectangle width="30" height="30" as="alternateBounds" />
          </mxGeometry>
        </mxCell>
        <mxCell id="yuQsAKVHhCq-FfcVtZyC-147" value="unit_name_plural" style="shape=partialRectangle;connectable=0;fillColor=none;top=0;left=0;bottom=0;right=0;align=left;spacingLeft=6;overflow=hidden;whiteSpace=wrap;html=1;labelBackgroundColor=none;rounded=1;" vertex="1" parent="yuQsAKVHhCq-FfcVtZyC-145">
          <mxGeometry x="30" width="150" height="30" as="geometry">
            <mxRectangle width="150" height="30" as="alternateBounds" />
          </mxGeometry>
        </mxCell>
        <mxCell id="yuQsAKVHhCq-FfcVtZyC-153" value="" style="endArrow=ERzeroToOne;html=1;rounded=1;entryX=0;entryY=0.5;entryDx=0;entryDy=0;exitX=1;exitY=0.5;exitDx=0;exitDy=0;endFill=0;startArrow=ERzeroToMany;startFill=0;labelBackgroundColor=none;fontColor=default;" edge="1" parent="WIyWlLk6GJQsqaUBKTNV-1" source="yuQsAKVHhCq-FfcVtZyC-104" target="yuQsAKVHhCq-FfcVtZyC-139">
          <mxGeometry width="50" height="50" relative="1" as="geometry">
            <mxPoint x="570" y="350" as="sourcePoint" />
            <mxPoint x="620" y="300" as="targetPoint" />
          </mxGeometry>
        </mxCell>
        <mxCell id="yuQsAKVHhCq-FfcVtZyC-154" value="" style="endArrow=ERzeroToOne;html=1;rounded=1;endFill=0;startArrow=ERzeroToMany;startFill=0;labelBackgroundColor=none;fontColor=default;" edge="1" parent="WIyWlLk6GJQsqaUBKTNV-1">
          <mxGeometry width="50" height="50" relative="1" as="geometry">
            <mxPoint x="259" y="565" as="sourcePoint" />
            <mxPoint x="359" y="565" as="targetPoint" />
            <Array as="points" />
          </mxGeometry>
        </mxCell>
        <mxCell id="yuQsAKVHhCq-FfcVtZyC-155" value="" style="endArrow=ERzeroToMany;html=1;rounded=1;entryX=0;entryY=0.5;entryDx=0;entryDy=0;exitX=1;exitY=0.323;exitDx=0;exitDy=0;exitPerimeter=0;edgeStyle=entityRelationEdgeStyle;startArrow=ERmandOne;startFill=0;endFill=0;labelBackgroundColor=none;fontColor=default;" edge="1" parent="WIyWlLk6GJQsqaUBKTNV-1" source="yuQsAKVHhCq-FfcVtZyC-46" target="yuQsAKVHhCq-FfcVtZyC-107">
          <mxGeometry width="50" height="50" relative="1" as="geometry">
            <mxPoint x="350" y="450" as="sourcePoint" />
            <mxPoint x="400" y="400" as="targetPoint" />
          </mxGeometry>
        </mxCell>
        <mxCell id="yuQsAKVHhCq-FfcVtZyC-156" value="" style="endArrow=ERzeroToMany;html=1;rounded=1;entryX=0;entryY=0.5;entryDx=0;entryDy=0;exitX=0;exitY=0.5;exitDx=0;exitDy=0;edgeStyle=orthogonalEdgeStyle;curved=1;endFill=0;startArrow=ERzeroToMany;startFill=0;labelBackgroundColor=none;fontColor=default;" edge="1" parent="WIyWlLk6GJQsqaUBKTNV-1" source="yuQsAKVHhCq-FfcVtZyC-46" target="yuQsAKVHhCq-FfcVtZyC-71">
          <mxGeometry width="50" height="50" relative="1" as="geometry">
            <mxPoint x="60" y="440" as="sourcePoint" />
            <mxPoint x="120" y="310" as="targetPoint" />
            <Array as="points">
              <mxPoint x="40" y="550" />
              <mxPoint x="40" y="123" />
            </Array>
          </mxGeometry>
        </mxCell>
      </root>
    </mxGraphModel>
  </diagram>
</mxfile>
